<svg id="1d3d0a74-0af9-4c61-8213-c507220bc12e" data-name="Ebene 1" xmlns="http://www.w3.org/2000/svg" viewBox="0 0 112 60"><defs><style>.\39 e6ff73b-0c0b-4453-87e5-52d69f1c15e1{fill:#ececec;}.\35 bb28e16-0ae6-4b23-9cea-78f3dcf2697d{fill:#00a5db;}</style></defs><title>logo</title><rect class="9e6ff73b-0c0b-4453-87e5-52d69f1c15e1" width="112" height="60"/><path class="5bb28e16-0ae6-4b23-9cea-78f3dcf2697d" d="M84.43,28.76A2.4,2.4,0,0,0,82,31.07a2.44,2.44,0,0,0,2.48,2.32h.34a2.32,2.32,0,1,0,0-4.63Zm0,6.24a4.21,4.21,0,0,1-4.34-3.93,4.2,4.2,0,0,1,4.34-3.91h.34a4.19,4.19,0,0,1,4.34,3.91A4.21,4.21,0,0,1,84.8,35Z"/><path class="5bb28e16-0ae6-4b23-9cea-78f3dcf2697d" d="M98.46,27.14a3.39,3.39,0,0,0-2.36.93,3.44,3.44,0,0,0-2.37-.93,3.12,3.12,0,0,0-3.25,3V35h1.78V30.1a1.48,1.48,0,0,1,2.95,0V35H97V30.1a1.48,1.48,0,0,1,3,0V35h1.78V30.1a3.12,3.12,0,0,0-3.26-3"/><rect class="5bb28e16-0ae6-4b23-9cea-78f3dcf2697d" x="68.89" y="27.19" width="1.78" height="7.76"/><rect class="5bb28e16-0ae6-4b23-9cea-78f3dcf2697d" x="68.89" y="24.46" width="1.78" height="1.64"/><path class="5bb28e16-0ae6-4b23-9cea-78f3dcf2697d" d="M79.24,35H76.35a4.08,4.08,0,0,1-4.25-3.87,4.08,4.08,0,0,1,4.25-3.87h2.89v1.62H76.35a2.26,2.26,0,1,0,0,4.5h2.89Z"/><path class="5bb28e16-0ae6-4b23-9cea-78f3dcf2697d" d="M65.21,10V50h-40v-15H22.78l-6.65-7.88v7.88H14.24V25h2.37l6.65,7.88V25h1.95V10ZM57,32.11A2.92,2.92,0,0,0,54.1,29.2H49.9a1.35,1.35,0,1,1,0-2.69h6.18V25H49.9a2.93,2.93,0,1,0,0,5.85h4.2a1.35,1.35,0,1,1,0,2.69H47.19v1.56H54.1A2.94,2.94,0,0,0,57,32.11Zm-15.4-1.28,5.2-5.78h-2.4l-3.69,4.23-3.69-4.23H34.66l5.19,5.78V35h1.78ZM35,32.11a2.92,2.92,0,0,0-2.93-2.91h-4.2a1.35,1.35,0,1,1,0-2.69h6.18V25H27.91a2.93,2.93,0,1,0,0,5.85h4.2a1.35,1.35,0,1,1,0,2.69H25.2v1.56h6.91A2.94,2.94,0,0,0,35,32.11Z"/><path class="9e6ff73b-0c0b-4453-87e5-52d69f1c15e1" d="M54.1,29.2a2.93,2.93,0,1,1,0,5.85H47.19V33.49H54.1a1.35,1.35,0,1,0,0-2.69H49.9a2.93,2.93,0,1,1,0-5.85h6.18v1.56H49.9a1.35,1.35,0,1,0,0,2.69Z"/><polygon class="9e6ff73b-0c0b-4453-87e5-52d69f1c15e1" points="46.83 25.05 41.63 30.83 41.63 34.96 39.85 34.96 39.85 30.83 34.66 25.05 37.05 25.05 40.74 29.28 44.43 25.05 46.83 25.05"/><path class="9e6ff73b-0c0b-4453-87e5-52d69f1c15e1" d="M32.11,29.2a2.93,2.93,0,1,1,0,5.85H25.2V33.49h6.91a1.35,1.35,0,1,0,0-2.69h-4.2a2.93,2.93,0,1,1,0-5.85h6.18v1.56H27.91a1.35,1.35,0,1,0,0,2.69Z"/><rect class="5bb28e16-0ae6-4b23-9cea-78f3dcf2697d" x="10.29" y="24.96" width="1.89" height="10.09"/></svg>